<svg height="464pt" viewBox="-46 0 464 464" width="464pt" xmlns="http://www.w3.org/2000/svg">
    <path
        d="m312 248c-13.253906 0-24-10.746094-24-24 0-4.417969-3.582031-8-8-8s-8 3.582031-8 8c0 13.253906-10.746094 24-24 24-4.417969 0-8 3.582031-8 8s3.582031 8 8 8c13.253906 0 24 10.746094 24 24 0 4.417969 3.582031 8 8 8s8-3.582031 8-8c0-13.253906 10.746094-24 24-24 4.417969 0 8-3.582031 8-8s-3.582031-8-8-8zm-32 16.246094c-2.332031-3.136719-5.109375-5.914063-8.246094-8.246094 3.136719-2.332031 5.914063-5.109375 8.246094-8.246094 2.332031 3.136719 5.109375 5.914063 8.246094 8.246094-3.136719 2.332031-5.914063 5.109375-8.246094 8.246094zm0 0"
        fill="#ffd782" />
    <path
        d="m120 184c-13.253906 0-24-10.746094-24-24 0-4.417969-3.582031-8-8-8s-8 3.582031-8 8c0 13.253906-10.746094 24-24 24-4.417969 0-8 3.582031-8 8s3.582031 8 8 8c13.253906 0 24 10.746094 24 24 0 4.417969 3.582031 8 8 8s8-3.582031 8-8c0-13.253906 10.746094-24 24-24 4.417969 0 8-3.582031 8-8s-3.582031-8-8-8zm-32 16.246094c-2.332031-3.136719-5.109375-5.914063-8.246094-8.246094 3.136719-2.332031 5.914063-5.109375 8.246094-8.246094 2.332031 3.136719 5.109375 5.914063 8.246094 8.246094-3.136719 2.332031-5.914063 5.109375-8.246094 8.246094zm0 0"
        fill="#ffd782" />
    <path d="m72 112h16v16h-16zm0 0" fill="#55b56a" />
    <path d="m0 192h16v16h-16zm0 0" fill="#55b56a" />
    <path
        d="m48 80c0 8.835938-7.164062 16-16 16s-16-7.164062-16-16 7.164062-16 16-16 16 7.164062 16 16zm0 0"
        fill="#87cee9" />
    <path
        d="m352 48c0 8.835938-7.164062 16-16 16s-16-7.164062-16-16 7.164062-16 16-16 16 7.164062 16 16zm0 0"
        fill="#87cee9" />
    <path
        d="m208 128c0 8.835938-7.164062 16-16 16s-16-7.164062-16-16 7.164062-16 16-16 16 7.164062 16 16zm0 0"
        fill="#f1c056" />
    <path
        d="m208 160c0 8.835938-7.164062 16-16 16s-16-7.164062-16-16 7.164062-16 16-16 16 7.164062 16 16zm0 0"
        fill="#ffd782" />
    <path d="m208 464h-32v-256h32zm0 0" fill="#8d28ad" />
    <path d="m176 432h32v32h-32zm0 0" fill="#aa0554" />
    <path d="m176 400h32v32h-32zm0 0" fill="#d9176c" />
    <path d="m176 208h32v96h-32zm0 0" fill="#d9176c" />
    <path
        d="m126.441406 359.398438c-37.992187 0-49.539062-9.527344-54.074218-19.726563-13.871094-31.199219 53.402343-80.625 67.023437-90.207031l9.21875 13.070312c-34.074219 24-67.3125 57.824219-61.601563 70.632813 2.886719 6.488281 25.199219 24.800781 191.199219-12.976563l3.554688 15.617188c-76.160157 17.304687-124.464844 23.589844-155.320313 23.589844zm0 0"
        fill="#dd3e47" />
    <path
        d="m308.847656 198.398438-9.695312-12.796876c60.207031-45.875 57.222656-61.601562 56-64.25-6.617188-14.632812-68.265625-12.199218-121.601563-1.542968l-3.152343-15.648438c114.457031-22.886718 135.570312 2.34375 139.3125 10.640625 8.554687 18.863281-10.789063 45.414063-60.863282 83.597657zm0 0"
        fill="#dd3e47" />
    <path d="m256 152h16v16h-16zm0 0" fill="#55b56a" />
    <path d="m336 208h16v16h-16zm0 0" fill="#55b56a" />
    <path
        d="m216 200c0 13.253906-10.746094 24-24 24s-24-10.746094-24-24 10.746094-24 24-24 24 10.746094 24 24zm0 0"
        fill="#dd9c66" />
    <path d="m192 0 24 48 48 8-40 32 16 48-48-24-48 24 16-48-40-32 48-8zm0 0" fill="#fcf05a" />
</svg>